<svg xmlns="http://www.w3.org/2000/svg" xmlns:xlink="http://www.w3.org/1999/xlink" id="Layer_1" x="0" y="0" enable-background="new 0 0 670.7 343.4" version="1.1" viewBox="0 0 670.7 343.4" xml:space="preserve"><g><g><g><path fill="#606060" d="M417.4,180.2c-17.6,16.4-41.2,26.4-67.1,26.4c-25.7,0-49.1-9.9-66.6-26l40.3-40.3 c7.2,5.9,16.3,9.4,26.3,9.4c10.2,0,19.6-3.7,26.8-9.8L417.4,180.2z"/></g><g><path fill="#606060" d="M377.1,76.5c-6.4-5.4-14.4-8.8-23.1-9.6V10c24.5,0.9,46.7,10.7,63.4,26.3L377.1,76.5z"/></g><g><path fill="#42AA18" d="M346.7,9.9v56.8h-37.5v25.2c0,4.9-0.2,9.8-0.4,14.7c0,0.6,0,1.1,0,1.7c0,1.9,0.1,3.9,0.4,5.7 c1.1,8.1,4.6,15.4,9.6,21.3l-40.2,40.2c-6.6-7-12.2-15-16.5-23.7c-5.3-10.6-8.7-22.3-9.8-34.7V66.8h-38V9.9H346.7z"/></g></g><g><path d="M73.7,213.3v16.1H48.4v67.8H29.5v-67.8H4.2v-16.1H73.7z"/><path d="M72.5,265.8c0-5.6,0.9-10.6,2.6-14.8c1.7-4.2,4-7.8,6.8-10.6c2.8-2.8,6.1-5,9.7-6.4c3.7-1.5,7.4-2.2,11.3-2.2 c9,0,16.2,2.8,21.4,8.3c5.2,5.5,7.9,13.7,7.9,24.4c0,1,0,2.2-0.1,3.4c-0.1,1.3-0.2,2.4-0.2,3.3H91c0.4,3.7,2.1,6.7,5.2,8.8 c3.1,2.2,7.2,3.3,12.3,3.3c3.3,0,6.6-0.3,9.7-0.9c3.2-0.6,5.8-1.3,7.8-2.2l2.4,14.6c-1,0.5-2.3,1-3.9,1.5 c-1.6,0.5-3.4,0.9-5.4,1.3c-2,0.4-4.1,0.7-6.4,0.9c-2.3,0.2-4.5,0.4-6.8,0.4c-5.7,0-10.7-0.8-14.9-2.5c-4.2-1.7-7.7-4-10.5-7 c-2.8-2.9-4.8-6.4-6.2-10.5C73.1,274.9,72.5,270.5,72.5,265.8z M114.8,258.9c-0.1-1.5-0.3-3-0.8-4.5c-0.4-1.5-1.1-2.7-2.1-3.9 c-0.9-1.1-2.1-2.1-3.5-2.8c-1.4-0.7-3.2-1.1-5.3-1.1c-2,0-3.8,0.3-5.2,1c-1.5,0.7-2.7,1.6-3.6,2.7c-1,1.1-1.7,2.4-2.2,3.9 c-0.5,1.5-0.9,3-1.1,4.5H114.8z"/><path d="M143.1,265.3c0-4.6,0.7-8.9,2.2-13c1.5-4.1,3.6-7.6,6.5-10.6c2.8-3,6.3-5.4,10.3-7.2c4-1.8,8.6-2.7,13.8-2.7 c3.4,0,6.5,0.3,9.3,0.9c2.8,0.6,5.6,1.5,8.2,2.6l-3.8,14.4c-1.7-0.6-3.6-1.2-5.6-1.7c-2-0.5-4.3-0.7-6.8-0.7 c-5.3,0-9.3,1.7-11.9,5c-2.6,3.3-3.9,7.7-3.9,13.1c0,5.7,1.2,10.2,3.7,13.3c2.5,3.1,6.8,4.7,12.9,4.7c2.2,0,4.5-0.2,7-0.6 c2.5-0.4,4.8-1,6.9-1.9l2.5,14.8c-2.1,0.9-4.7,1.7-7.9,2.3c-3.1,0.6-6.6,1-10.4,1c-5.8,0-10.8-0.9-15-2.6 c-4.2-1.7-7.6-4.1-10.3-7.1c-2.7-3-4.7-6.5-5.9-10.6C143.7,274.5,143.1,270.1,143.1,265.3z"/><path d="M206.6,297.2v-91l18-2.9v30.5c1.2-0.4,2.8-0.8,4.7-1.1c1.9-0.4,3.7-0.5,5.5-0.5c5.2,0,9.5,0.7,12.9,2.1 c3.4,1.4,6.2,3.4,8.2,6c2.1,2.6,3.5,5.6,4.4,9.2c0.8,3.5,1.3,7.5,1.3,11.9v35.9h-18v-33.8c0-5.8-0.7-9.9-2.2-12.3 c-1.5-2.4-4.3-3.6-8.3-3.6c-1.6,0-3.1,0.1-4.5,0.4c-1.4,0.3-2.7,0.6-3.8,0.9v48.4H206.6z"/><path d="M277.9,235.7c3.1-0.9,7-1.7,11.9-2.5c4.8-0.8,9.9-1.1,15.2-1.1c5.4,0,9.9,0.7,13.5,2.1c3.6,1.4,6.4,3.4,8.5,6 c2.1,2.6,3.6,5.6,4.5,9.2c0.9,3.5,1.3,7.5,1.3,11.9v35.9h-18v-33.8c0-5.8-0.8-9.9-2.3-12.3c-1.5-2.4-4.4-3.6-8.6-3.6 c-1.3,0-2.7,0.1-4.1,0.2s-2.7,0.3-3.9,0.4v49.1h-18V235.7z"/><path d="M408.7,265.2c0,5-0.7,9.6-2.2,13.7c-1.5,4.2-3.6,7.7-6.3,10.6c-2.7,2.9-6,5.2-9.9,6.8c-3.8,1.6-8.1,2.4-12.9,2.4 c-4.7,0-8.9-0.8-12.8-2.4c-3.8-1.6-7.1-3.9-9.9-6.8c-2.7-2.9-4.9-6.5-6.4-10.6c-1.5-4.2-2.3-8.7-2.3-13.7c0-5,0.8-9.6,2.4-13.7 c1.6-4.1,3.8-7.6,6.5-10.5c2.8-2.9,6.1-5.2,9.9-6.8c3.8-1.6,8-2.4,12.5-2.4c4.6,0,8.8,0.8,12.6,2.4c3.8,1.6,7.1,3.9,9.9,6.8 c2.7,2.9,4.9,6.4,6.4,10.5C407.9,255.7,408.7,260.2,408.7,265.2z M390.3,265.2c0-5.6-1.1-9.9-3.3-13.1c-2.2-3.2-5.4-4.8-9.5-4.8 c-4.1,0-7.3,1.6-9.6,4.8c-2.3,3.2-3.4,7.6-3.4,13.1c0,5.6,1.1,10,3.4,13.3c2.3,3.3,5.4,4.9,9.6,4.9c4.1,0,7.3-1.6,9.5-4.9 C389.2,275.2,390.3,270.8,390.3,265.2z"/><path d="M462.1,298.8c-13.6,0-24-3.8-31.2-11.4c-7.1-7.6-10.7-18.3-10.7-32.3c0-6.9,1.1-13.1,3.3-18.6c2.2-5.4,5.2-10,9-13.8 c3.8-3.8,8.3-6.6,13.6-8.5c5.2-1.9,10.9-2.9,17.1-2.9c3.5,0,6.8,0.3,9.7,0.8c2.9,0.5,5.4,1.1,7.6,1.8c2.2,0.7,4,1.4,5.4,2.1 s2.5,1.3,3.1,1.7l-5.4,15.2c-2.6-1.4-5.6-2.5-9-3.5c-3.4-1-7.3-1.5-11.7-1.5c-2.9,0-5.7,0.5-8.5,1.5c-2.8,1-5.2,2.5-7.4,4.7 c-2.1,2.1-3.9,4.9-5.1,8.3c-1.3,3.4-1.9,7.5-1.9,12.3c0,3.9,0.4,7.5,1.3,10.8c0.8,3.3,2.2,6.2,4.1,8.7c1.9,2.4,4.4,4.3,7.4,5.7 c3.1,1.4,6.8,2.1,11.1,2.1c2.7,0,5.2-0.2,7.4-0.5c2.2-0.3,4.1-0.7,5.8-1.1c1.7-0.4,3.2-0.9,4.5-1.5c1.3-0.6,2.5-1.1,3.5-1.6 l5.2,15.1c-2.7,1.6-6.4,3.1-11.3,4.4C474.1,298.2,468.4,298.8,462.1,298.8z"/><path d="M559.1,265.2c0,5-0.7,9.6-2.2,13.7c-1.5,4.2-3.6,7.7-6.3,10.6c-2.7,2.9-6,5.2-9.9,6.8c-3.8,1.6-8.1,2.4-12.9,2.4 c-4.7,0-8.9-0.8-12.8-2.4c-3.8-1.6-7.1-3.9-9.9-6.8c-2.7-2.9-4.9-6.5-6.4-10.6c-1.5-4.2-2.3-8.7-2.3-13.7c0-5,0.8-9.6,2.4-13.7 s3.8-7.6,6.5-10.5c2.8-2.9,6.1-5.2,9.9-6.8c3.8-1.6,8-2.4,12.5-2.4c4.6,0,8.8,0.8,12.6,2.4c3.8,1.6,7.1,3.9,9.9,6.8 c2.7,2.9,4.9,6.4,6.4,10.5C558.3,255.7,559.1,260.2,559.1,265.2z M540.7,265.2c0-5.6-1.1-9.9-3.3-13.1c-2.2-3.2-5.4-4.8-9.5-4.8 c-4.1,0-7.3,1.6-9.6,4.8c-2.3,3.2-3.4,7.6-3.4,13.1c0,5.6,1.1,10,3.4,13.3c2.3,3.3,5.4,4.9,9.6,4.9c4.1,0,7.3-1.6,9.5-4.9 C539.6,275.2,540.7,270.8,540.7,265.2z"/><path d="M608,263.4c0-5.8-0.7-9.9-2.2-12.3c-1.5-2.4-4.1-3.6-7.7-3.6c-1.1,0-2.3,0.1-3.5,0.2s-2.4,0.3-3.5,0.4v49.1h-18v-61.5 c1.5-0.4,3.3-0.8,5.4-1.3c2.1-0.4,4.2-0.8,6.5-1.2c2.3-0.4,4.7-0.6,7.1-0.8c2.4-0.2,4.8-0.3,7.1-0.3c4.6,0,8.3,0.6,11.2,1.8 c2.9,1.2,5.2,2.6,7.1,4.2c2.6-1.9,5.5-3.3,8.9-4.4c3.3-1,6.4-1.6,9.3-1.6c5.1,0,9.3,0.7,12.5,2.1c3.3,1.4,5.9,3.4,7.8,6 c1.9,2.6,3.3,5.6,4,9.2c0.7,3.5,1.1,7.5,1.1,11.9v35.9h-18v-33.8c0-5.8-0.7-9.9-2.2-12.3c-1.5-2.4-4.1-3.6-7.7-3.6 c-1,0-2.3,0.2-4.1,0.7c-1.7,0.5-3.2,1.1-4.3,1.8c0.6,1.9,0.9,3.8,1.1,5.9c0.2,2.1,0.2,4.3,0.2,6.6v34.7h-18V263.4z"/></g><g><path d="M164.3,314.7c1.7,0.9,2.9,2.1,3.8,3.6c0.9,1.6,1.3,3.4,1.3,5.6c0,2.1-0.4,4-1.3,5.6c-0.9,1.6-2.2,2.8-3.8,3.6 c-1.7,0.8-3.6,1.2-5.9,1.2h-6.5v-20.9h6.5C160.6,313.4,162.6,313.9,164.3,314.7z M164.5,330c1.4-1.4,2.1-3.4,2.1-6 c0-2.6-0.7-4.6-2.1-6.1c-1.4-1.5-3.5-2.2-6.2-2.2h-3.8v16.4h3.8C161,332.1,163.1,331.4,164.5,330z"/><path d="M188.8,315.7v7h7.6v2.3h-7.6v7.2h8.5v2.3h-11.3v-20.9h11.3v2.3H188.8z"/><path d="M231.8,313.4l-7.9,20.9h-3.2l-7.9-20.9h2.9l6.6,18l6.6-18H231.8z"/><path d="M250.5,315.7v7h7.6v2.3h-7.6v7.2h8.5v2.3h-11.3v-20.9H259v2.3H250.5z"/><path d="M278.9,332.1h7.3v2.2h-10v-20.9h2.7V332.1z"/><path d="M306.3,333.2c-1.6-0.9-2.9-2.2-3.8-3.8c-0.9-1.6-1.4-3.5-1.4-5.5s0.5-3.9,1.4-5.5s2.2-2.9,3.8-3.8 c1.6-0.9,3.4-1.4,5.3-1.4c2,0,3.7,0.5,5.3,1.4c1.6,0.9,2.9,2.2,3.8,3.8c0.9,1.6,1.4,3.5,1.4,5.5c0,2.1-0.5,3.9-1.4,5.5 c-0.9,1.6-2.2,2.9-3.8,3.8s-3.4,1.4-5.3,1.4C309.7,334.6,307.9,334.1,306.3,333.2z M315.6,331.2c1.2-0.7,2.1-1.7,2.8-2.9 c0.7-1.3,1-2.7,1-4.4c0-1.7-0.3-3.1-1-4.4c-0.7-1.2-1.6-2.2-2.7-2.9c-1.2-0.7-2.5-1-4-1c-1.5,0-2.8,0.3-4,1 c-1.2,0.7-2.1,1.6-2.7,2.9c-0.7,1.3-1,2.7-1,4.4c0,1.7,0.3,3.1,1,4.4c0.7,1.3,1.6,2.2,2.8,2.9c1.2,0.7,2.5,1,3.9,1 C313.1,332.2,314.4,331.9,315.6,331.2z"/><path d="M351,323.9c-1.2,1.2-3,1.7-5.4,1.7h-4v8.7h-2.7v-20.9h6.8c2.4,0,4.2,0.6,5.4,1.7c1.2,1.1,1.8,2.6,1.8,4.4 C352.7,321.3,352.2,322.7,351,323.9z M348.9,322.4c0.7-0.7,1.1-1.6,1.1-2.8c0-2.6-1.5-3.9-4.4-3.9h-4v7.7h4 C347,323.4,348.2,323,348.9,322.4z"/><path d="M390.4,313.6v20.8h-2.7v-15.5l-6.9,15.5h-1.9l-6.9-15.5v15.5h-2.7v-20.8h2.9l7.7,17.2l7.7-17.2H390.4z"/><path d="M410.7,315.7v7h7.6v2.3h-7.6v7.2h8.5v2.3H408v-20.9h11.3v2.3H410.7z"/><path d="M452.9,334.4h-2.7l-11-16.6v16.6h-2.7v-20.9h2.7l11,16.6v-16.6h2.7V334.4z"/><path d="M483.4,313.4v2.2h-5.7v18.7H475v-18.7h-5.7v-2.2H483.4z"/><path d="M502.7,333.8c-1.1-0.5-1.9-1.2-2.6-2s-0.9-1.9-1-3h2.9c0.1,1,0.5,1.8,1.2,2.5s1.7,1,3.1,1c1.3,0,2.3-0.3,3.1-1 c0.8-0.6,1.1-1.5,1.1-2.5c0-0.8-0.2-1.4-0.7-1.9c-0.4-0.5-1-0.9-1.7-1.1c-0.7-0.3-1.5-0.5-2.7-0.8c-1.4-0.4-2.5-0.7-3.3-1.1 s-1.5-0.9-2.1-1.7c-0.6-0.8-0.9-1.8-0.9-3.1c0-1.1,0.3-2.1,0.9-3c0.6-0.9,1.4-1.6,2.4-2c1.1-0.5,2.3-0.7,3.6-0.7 c2,0,3.6,0.5,4.8,1.5c1.2,1,2,2.3,2.1,3.9h-3c-0.1-0.8-0.5-1.5-1.3-2.1c-0.7-0.6-1.7-0.9-2.9-0.9c-1.1,0-2.1,0.3-2.8,0.9 c-0.7,0.6-1.1,1.4-1.1,2.5c0,0.8,0.2,1.4,0.6,1.9c0.4,0.5,1,0.8,1.6,1.1c0.6,0.3,1.5,0.5,2.7,0.9c1.4,0.4,2.5,0.8,3.3,1.1 s1.6,0.9,2.2,1.7c0.6,0.8,0.9,1.8,0.9,3.1c0,1-0.3,2-0.8,2.9c-0.5,0.9-1.3,1.6-2.4,2.2c-1.1,0.6-2.3,0.8-3.8,0.8 C505,334.6,503.8,334.3,502.7,333.8z"/></g></g></svg>